<?xml version="1.0" encoding="UTF-8" standalone="no"?><!DOCTYPE svg PUBLIC "-//W3C//DTD SVG 1.1//EN" "http://www.w3.org/Graphics/SVG/1.1/DTD/svg11.dtd"><svg width="100%" height="100%" viewBox="0 0 90 92" version="1.1" xmlns="http://www.w3.org/2000/svg" xmlns:xlink="http://www.w3.org/1999/xlink" xml:space="preserve" xmlns:serif="http://www.serif.com/" style="fill-rule:evenodd;clip-rule:evenodd;stroke-linejoin:round;stroke-miterlimit:2;"><g><path d="M89.833,46.875c0,-3.25 -0.291,-6.375 -0.833,-9.375l-43.167,0l0,17.75l24.667,0c-1.083,5.708 -4.333,10.542 -9.208,13.792l-0,11.541l14.875,0c8.666,-8 13.666,-19.75 13.666,-33.708Z" style="fill:#4285f4;fill-rule:nonzero;"/><path d="M45.833,91.667c12.375,-0 22.75,-4.084 30.334,-11.084l-14.875,-11.541c-4.084,2.75 -9.292,4.416 -15.459,4.416c-11.916,0 -22.041,-8.041 -25.666,-18.875l-15.25,0l-0,11.834c7.541,14.958 23,25.25 40.916,25.25Z" style="fill:#34a853;fill-rule:nonzero;"/><path d="M20.167,54.542c-0.917,-2.75 -1.459,-5.667 -1.459,-8.709c0,-3.041 0.542,-5.958 1.459,-8.708l-0,-11.833l-15.25,-0c-3.125,6.166 -4.917,13.125 -4.917,20.541c-0,7.417 1.792,14.375 4.917,20.542l11.875,-9.25l3.375,-2.583Z" style="fill:#fbbc05;fill-rule:nonzero;"/><path d="M45.833,18.25c6.75,0 12.75,2.333 17.542,6.833l13.125,-13.125c-7.958,-7.416 -18.292,-11.958 -30.667,-11.958c-17.916,0 -33.375,10.292 -40.916,25.292l15.25,11.833c3.625,-10.833 13.75,-18.875 25.666,-18.875Z" style="fill:#ea4335;fill-rule:nonzero;"/></g></svg>